# xmcd
#
# Track frame offsets:
#	182
#	15302
#	32895
#	48650
#	63845
#	82742
#	96850
#	114785
#	128932
#	150017
#
# Disc length: 2184 seconds
#
# Revision: 2
# Processed by: cddbd v1.4PL0 Copyright (c) Steve Scherf et al.
# Submitted via: audiograbber 1.80.04
#
DISCID=6608860a
DTITLE=Nitty Gritty Dirt Band - Hold On
DYEAR=1987
DGENRE=Country
TTITLE0=Fishin' In The Dark
TTITLE1=Joe Knows How To Live
TTITLE2=Keepin' the Road Hot
TTITLE3=Blue Ridge Mountain Girl
TTITLE4=Angelyne
TTITLE5=Baby's Got A Hold On Me
TTITLE6=Dancing To The Beat Of A Broken Heart
TTITLE7=Oh What A Love
TTITLE8=Oleanna
TTITLE9=Tennessee
EXTD=
EXTT0=
EXTT1=
EXTT2=
EXTT3=
EXTT4=
EXTT5=
EXTT6=
EXTT7=
EXTT8=
EXTT9=
PLAYORDER=
